# Blender 5.0.1
# www.blender.org
mtllib arcs-2.mtl
g arcs-2_Cylinder.007
v 1.540059 0.033401 0.872916
v 1.606860 -0.033401 0.873066
v 1.543849 0.033401 -0.873106
v 1.610650 -0.033401 -0.872956
v 1.537649 0.030991 0.872914
v 1.604451 -0.035811 0.873065
v 1.541439 0.030991 -0.873107
v 1.608241 -0.035811 -0.872957
v 1.606861 0.033401 0.872952
v 1.540059 -0.033401 0.873029
v 1.610651 0.033401 -0.873070
v 1.543849 -0.033401 -0.872992
v 1.604451 0.035811 0.872951
v 1.537649 -0.030991 0.873028
v 1.608240 0.035811 -0.873071
v 1.541439 -0.030991 -0.872993
v 0.212542 0.038119 0.038240
v 0.260936 -0.028679 -0.007801
v 1.092014 0.028679 0.929599
v 1.140407 -0.038119 0.883558
v 0.210805 0.035710 0.039910
v 0.259199 -0.031089 -0.006131
v 1.090276 0.026269 0.931269
v 1.138670 -0.040529 0.885228
v 0.260840 0.038122 -0.007904
v 0.212638 -0.028681 0.038342
v 1.140311 0.028681 0.883455
v 1.092110 -0.038121 0.929702
v 0.259093 0.040531 -0.006245
v 0.210891 -0.026272 0.040002
v 1.138564 0.031091 0.885114
v 1.090363 -0.035712 0.931361
v 0.212542 0.038119 -0.038240
v 0.260936 -0.028679 0.007801
v 1.092014 0.028679 -0.929599
v 1.140407 -0.038119 -0.883558
v 0.210805 0.035710 -0.039910
v 0.259199 -0.031089 0.006131
v 1.090276 0.026269 -0.931269
v 1.138670 -0.040529 -0.885228
v 0.260840 0.038122 0.007904
v 0.212638 -0.028681 -0.038342
v 1.140311 0.028681 -0.883455
v 1.092110 -0.038121 -0.929702
v 0.259093 0.040531 0.006245
v 0.210891 -0.026272 -0.040002
v 1.138564 0.031091 -0.885114
v 1.090363 -0.035712 -0.931361
vn 0.7071 0.7071 0.0015
vn -0.7071 -0.7071 -0.0015
vn 0.7071 -0.7071 0.0015
vn -0.7071 0.7071 -0.0015
vn 0.5071 0.7071 -0.4928
vn -0.5071 -0.7071 0.4928
vn 0.4997 -0.7070 -0.5005
vn -0.4997 0.7070 0.5005
vn 0.5071 0.7071 0.4928
vn -0.5071 -0.7071 -0.4928
vn 0.4997 -0.7070 0.5005
vn -0.4997 0.7070 -0.5005
vt 1.000267 0.964906
vt 1.000353 0.996095
vt -0.000149 0.997971
vt -0.000234 0.966783
vt 0.912473 0.964953
vt 0.195109 0.967246
vt 0.195176 0.998435
vt 0.912539 0.996142
s 0
usemtl arcs
f 1/1/1 2/2/1 4/3/1 3/4/1
f 5/1/2 7/4/2 8/3/2 6/2/2
f 9/1/3 10/2/3 12/3/3 11/4/3
f 13/1/4 15/4/4 16/3/4 14/2/4
f 17/5/5 19/6/5 20/7/5 18/8/5
f 21/5/6 22/8/6 24/7/6 23/6/6
f 25/5/7 27/6/7 28/7/7 26/8/7
f 29/5/8 30/8/8 32/7/8 31/6/8
f 33/5/9 34/8/9 36/7/9 35/6/9
f 37/5/10 39/6/10 40/7/10 38/8/10
f 41/5/11 42/8/11 44/7/11 43/6/11
f 45/5/12 47/6/12 48/7/12 46/8/12
