# Blender 5.0.1
# www.blender.org
mtllib flames-2.mtl
g flames-2_Cylinder.004
v 0.672993 -0.091669 -1.327907
v -1.135297 -0.091669 -1.327908
v 0.672993 0.068718 -1.059602
v -1.135297 0.068718 -1.059602
v -1.134453 0.069260 -1.061183
v 0.673836 0.069260 -1.061183
v -1.134453 -0.091127 -1.329489
v 0.673836 -0.091127 -1.329489
v 0.673836 -0.091870 -1.060846
v -1.134453 -0.091870 -1.060846
v 0.673836 0.068516 -1.329151
v -1.134453 0.068516 -1.329152
v -1.135297 0.069462 -1.328245
v 0.672993 0.069462 -1.328245
v -1.135297 -0.090925 -1.059939
v 0.672993 -0.090925 -1.059939
v 0.656002 -0.136310 -0.985254
v 0.656002 0.113574 -0.985254
v 0.656002 -0.136310 -1.403277
v 0.656002 0.113574 -1.403277
v -0.147620 -0.063328 -1.107343
v -0.147620 0.040592 -1.107343
v -0.147620 -0.063328 -1.281188
v -0.147620 0.040592 -1.281188
v -0.147183 -0.063328 -1.107343
v -0.147183 0.040592 -1.107343
v -0.147183 -0.063328 -1.281188
v -0.147183 0.040592 -1.281188
v 0.191807 -0.085307 -1.070575
v 0.191807 0.062571 -1.070575
v 0.191807 -0.085307 -1.317956
v 0.191807 0.062571 -1.317956
v 0.192430 -0.085307 -1.070575
v 0.192430 0.062571 -1.070575
v 0.192430 -0.085307 -1.317956
v 0.192430 0.062571 -1.317956
v 0.672993 -0.091669 1.336608
v -1.135297 -0.091669 1.336608
v 0.672993 0.068718 1.068302
v -1.135297 0.068718 1.068302
v -1.134453 0.069260 1.069883
v 0.673836 0.069260 1.069883
v -1.134453 -0.091127 1.338189
v 0.673836 -0.091127 1.338189
v 0.673836 -0.091870 1.069546
v -1.134453 -0.091870 1.069546
v 0.673836 0.068516 1.337852
v -1.134453 0.068516 1.337852
v -1.135297 0.069462 1.336945
v 0.672993 0.069462 1.336945
v -1.135297 -0.090925 1.068639
v 0.672993 -0.090925 1.068639
v 0.656002 -0.136310 0.993954
v 0.656002 0.113574 0.993954
v 0.656002 -0.136310 1.411978
v 0.656002 0.113574 1.411978
v -0.147620 -0.063328 1.116044
v -0.147620 0.040592 1.116044
v -0.147620 -0.063328 1.289889
v -0.147620 0.040592 1.289889
v -0.147183 -0.063328 1.116044
v -0.147183 0.040592 1.116044
v -0.147183 -0.063328 1.289889
v -0.147183 0.040592 1.289889
v 0.191807 -0.085307 1.079276
v 0.191807 0.062571 1.079276
v 0.191807 -0.085307 1.326657
v 0.191807 0.062571 1.326657
v 0.192430 -0.085307 1.079276
v 0.192430 0.062571 1.079276
v 0.192430 -0.085307 1.326657
v 0.192430 0.062571 1.326657
vn -0.0000 -0.8583 0.5131
vn -0.0000 -0.8583 -0.5131
vn -0.0000 0.8583 -0.5131
vn -0.0000 0.8583 0.5131
vn -1.0000 -0.0000 -0.0000
vn 1.0000 -0.0000 -0.0000
vt 0.085832 0.001121
vt 0.025408 0.001121
vt 0.025408 0.304311
vt 0.085832 0.304311
vt 0.265453 0.131325
vt 0.144602 0.131325
vt 0.144602 0.010474
vt 0.265453 0.010474
s 1
usemtl flames
f 1/1/1 3/2/1 4/3/1 2/4/1
f 9/1/2 10/4/2 12/3/2 11/2/2
f 8/1/3 7/4/3 5/3/3 6/2/3
f 16/1/4 14/2/4 13/3/4 15/4/4
s 0
f 17/5/5 18/6/5 20/7/5 19/8/5
f 21/5/5 22/6/5 24/7/5 23/8/5
f 25/5/6 27/8/6 28/7/6 26/6/6
f 29/5/5 30/6/5 32/7/5 31/8/5
f 33/5/6 35/8/6 36/7/6 34/6/6
s 1
f 37/1/2 38/4/2 40/3/2 39/2/2
f 45/1/1 47/2/1 48/3/1 46/4/1
f 44/1/4 42/2/4 41/3/4 43/4/4
f 52/1/3 51/4/3 49/3/3 50/2/3
s 0
f 53/5/5 55/8/5 56/7/5 54/6/5
f 57/5/5 59/8/5 60/7/5 58/6/5
f 61/5/6 62/6/6 64/7/6 63/8/6
f 65/5/5 67/8/5 68/7/5 66/6/5
f 69/5/6 70/6/6 72/7/6 71/8/6
