# Blender 5.0.1
# www.blender.org
mtllib pod2-check.mtl
o pod2-check
v 0.000000 -0.000768 -5.866634
v 0.000000 4.106112 -5.866634
v 1.144524 -0.000768 -5.753908
v 1.144524 4.106112 -5.753908
v 2.245064 -0.000768 -5.420063
v 2.245064 4.106112 -5.420063
v 3.259327 -0.000768 -4.877928
v 3.259327 4.106112 -4.877928
v 4.148336 -0.000768 -4.148336
v 4.148336 4.106112 -4.148336
v 4.877928 -0.000768 -3.259327
v 4.877928 4.106112 -3.259327
v 5.420063 -0.000768 -2.245064
v 5.420063 4.106112 -2.245064
v 5.753908 -0.000768 -1.144524
v 5.753908 4.106112 -1.144524
v 5.866634 -0.000768 0.000000
v 5.866634 4.106112 0.000000
v 5.753908 -0.000768 1.144524
v 5.753908 4.106112 1.144524
v 5.420063 -0.000768 2.245064
v 5.420063 4.106112 2.245064
v 4.877928 -0.000768 3.259327
v 4.877928 4.106112 3.259327
v 4.148336 -0.000768 4.148336
v 4.148336 4.106112 4.148336
v 3.259327 -0.000768 4.877928
v 3.259327 4.106112 4.877928
v 2.245064 -0.000768 5.420063
v 2.245064 4.106112 5.420063
v 1.144524 -0.000768 5.753908
v 1.144524 4.106112 5.753908
v 0.000000 -0.000768 5.866634
v 0.000000 4.106112 5.866634
v -1.144524 -0.000768 5.753908
v -1.144524 4.106112 5.753908
v -2.245064 -0.000768 5.420063
v -2.245064 4.106112 5.420063
v -3.259327 -0.000768 4.877928
v -3.259327 4.106112 4.877928
v -4.148336 -0.000768 4.148336
v -4.148336 4.106112 4.148336
v -4.877928 -0.000768 3.259327
v -4.877928 4.106112 3.259327
v -5.420063 -0.000768 2.245064
v -5.420063 4.106112 2.245064
v -5.753908 -0.000768 1.144524
v -5.753908 4.106112 1.144524
v -5.866634 -0.000768 0.000000
v -5.866634 4.106112 0.000000
v -5.753908 -0.000768 -1.144524
v -5.753908 4.106112 -1.144524
v -5.420063 -0.000768 -2.245064
v -5.420063 4.106112 -2.245064
v -4.877928 -0.000768 -3.259327
v -4.877928 4.106112 -3.259327
v -4.148336 -0.000768 -4.148336
v -4.148336 4.106112 -4.148336
v -3.259327 -0.000768 -4.877928
v -3.259327 4.106112 -4.877928
v -2.245064 -0.000768 -5.420063
v -2.245064 4.106112 -5.420063
v -1.144524 -0.000768 -5.753908
v -1.144524 4.106112 -5.753908
vn -0.0980 -0.0000 0.9952
vn -0.2903 -0.0000 0.9569
vn -0.4714 -0.0000 0.8819
vn -0.6344 -0.0000 0.7730
vn -0.7730 -0.0000 0.6344
vn -0.8819 -0.0000 0.4714
vn -0.9569 -0.0000 0.2903
vn -0.9952 -0.0000 0.0980
vn -0.9952 -0.0000 -0.0980
vn -0.9569 -0.0000 -0.2903
vn -0.8819 -0.0000 -0.4714
vn -0.7730 -0.0000 -0.6344
vn -0.6344 -0.0000 -0.7730
vn -0.4714 -0.0000 -0.8819
vn -0.2903 -0.0000 -0.9569
vn -0.0980 -0.0000 -0.9952
vn 0.0980 -0.0000 -0.9952
vn 0.2903 -0.0000 -0.9569
vn 0.4714 -0.0000 -0.8819
vn 0.6344 -0.0000 -0.7730
vn 0.7730 -0.0000 -0.6344
vn 0.8819 -0.0000 -0.4714
vn 0.9569 -0.0000 -0.2903
vn 0.9952 -0.0000 -0.0980
vn 0.9952 -0.0000 0.0980
vn 0.9569 -0.0000 0.2903
vn 0.8819 -0.0000 0.4714
vn 0.7730 -0.0000 0.6344
vn 0.6344 -0.0000 0.7730
vn 0.4714 -0.0000 0.8819
vn 0.2903 -0.0000 0.9569
vn 0.0980 -0.0000 0.9952
vt 1.000000 0.002178
vt 0.968750 0.002178
vt 0.968750 0.195308
vt 1.000000 0.195308
vt 0.937500 0.002178
vt 0.937500 0.195308
vt 0.906250 0.002178
vt 0.906250 0.195308
vt 0.875000 0.002178
vt 0.875000 0.195308
vt 0.843750 0.002178
vt 0.843750 0.195308
vt 0.812500 0.002178
vt 0.812500 0.195308
vt 0.781250 0.002178
vt 0.781250 0.195308
vt 0.750000 0.002178
vt 0.750000 0.195308
vt 0.718750 0.002178
vt 0.718750 0.195308
vt 0.687500 0.002178
vt 0.687500 0.195308
vt 0.656250 0.002178
vt 0.656250 0.195308
vt 0.625000 0.002178
vt 0.625000 0.195308
vt 0.593750 0.002178
vt 0.593750 0.195308
vt 0.562500 0.002178
vt 0.562500 0.195308
vt 0.531250 0.002178
vt 0.531250 0.195308
vt 0.500000 0.002178
vt 0.500000 0.195308
vt 0.468750 0.002178
vt 0.468750 0.195308
vt 0.437500 0.002178
vt 0.437500 0.195308
vt 0.406250 0.002178
vt 0.406250 0.195308
vt 0.375000 0.002178
vt 0.375000 0.195308
vt 0.343750 0.002178
vt 0.343750 0.195308
vt 0.312500 0.002178
vt 0.312500 0.195308
vt 0.281250 0.002178
vt 0.281250 0.195308
vt 0.250000 0.002178
vt 0.250000 0.195308
vt 0.218750 0.002178
vt 0.218750 0.195308
vt 0.187500 0.002178
vt 0.187500 0.195308
vt 0.156250 0.002178
vt 0.156250 0.195308
vt 0.125000 0.002178
vt 0.125000 0.195308
vt 0.093750 0.002178
vt 0.093750 0.195308
vt 0.062500 0.002178
vt 0.062500 0.195308
vt 0.031250 0.002178
vt 0.031250 0.195308
vt 0.000000 0.002178
vt 0.000000 0.195308
s 0
usemtl pod2-check
f 1/1/1 3/2/1 4/3/1 2/4/1
f 3/2/2 5/5/2 6/6/2 4/3/2
f 5/5/3 7/7/3 8/8/3 6/6/3
f 7/7/4 9/9/4 10/10/4 8/8/4
f 9/9/5 11/11/5 12/12/5 10/10/5
f 11/11/6 13/13/6 14/14/6 12/12/6
f 13/13/7 15/15/7 16/16/7 14/14/7
f 15/15/8 17/17/8 18/18/8 16/16/8
f 17/17/9 19/19/9 20/20/9 18/18/9
f 19/19/10 21/21/10 22/22/10 20/20/10
f 21/21/11 23/23/11 24/24/11 22/22/11
f 23/23/12 25/25/12 26/26/12 24/24/12
f 25/25/13 27/27/13 28/28/13 26/26/13
f 27/27/14 29/29/14 30/30/14 28/28/14
f 29/29/15 31/31/15 32/32/15 30/30/15
f 31/31/16 33/33/16 34/34/16 32/32/16
f 33/33/17 35/35/17 36/36/17 34/34/17
f 35/35/18 37/37/18 38/38/18 36/36/18
f 37/37/19 39/39/19 40/40/19 38/38/19
f 39/39/20 41/41/20 42/42/20 40/40/20
f 41/41/21 43/43/21 44/44/21 42/42/21
f 43/43/22 45/45/22 46/46/22 44/44/22
f 45/45/23 47/47/23 48/48/23 46/46/23
f 47/47/24 49/49/24 50/50/24 48/48/24
f 49/49/25 51/51/25 52/52/25 50/50/25
f 51/51/26 53/53/26 54/54/26 52/52/26
f 53/53/27 55/55/27 56/56/27 54/54/27
f 55/55/28 57/57/28 58/58/28 56/56/28
f 57/57/29 59/59/29 60/60/29 58/58/29
f 59/59/30 61/61/30 62/62/30 60/60/30
f 61/61/31 63/63/31 64/64/31 62/62/31
f 63/63/32 1/65/32 2/66/32 64/64/32
